<svg width="640" height="640" stroke="#000" stroke-width="10" fill="#fff" version="1.1" xmlns="http://www.w3.org/2000/svg">
<g transform="translate(320,320)">
<polygon points="0 -134,120 -60,120 60,0 134,-120 60,-120 -60"/>
<line    x1="0"    y1="-134"  x2="0"     y2="134"/>
<line    x1="120"  y1="-60"   x2="-120"  y2="60"/>
<line    x1="120"  y1="60"    x2="-120"  y2="-60"/>
<circle  cx="0"    cy="-134"  r="25"/>
<circle  cx="120"  cy="-60"   r="25"/>
<circle  cx="120"  cy="60"    r="25"/>
<circle  cx="0"    cy="134"   r="25"/>
<circle  cx="-120" cy="60"    r="25"/>
<circle  cx="-120" cy="-60"   r="25"/>
<circle  cx="0"    cy="0"     r="25"/>
<g stroke-width="6">
<ellipse cx="-229" cy="0"     rx="60"    ry="32" transform="rotate(90, 0, 0)" fill="#0f0"/>
<ellipse cx="-209" cy="0"     rx="40"    ry="21" transform="rotate(150, 0, 0)" fill="#0f0"/>
</g>
</g>
</svg>
